# AST/ASF file generated using VICON BodyLanguage
# -----------------------------------------------
:version 1.10
:name VICON
:units
  mass 1.0
  length 0.45
  angle deg
:documentation
   .ast/.asf automatically generated from VICON data using
   VICON BodyBuilder and BodyLanguage model FoxedUp or BRILLIANT.MOD
:root
   order TX TY TZ RX RY RZ
   axis XYZ
   position 0 0 0  
   orientation 0 -0 0 
:bonedata
  begin
     id 1 
     name lhipjoint
     direction 0.515797 -0.759363 0.396637 
     length 2.47888 
     axis 0 -0 0  XYZ
  end
  begin
     id 2 
     name lfemur
     direction 0.34202 -0.939693 0  
     length 6.81885  
     axis 0 -0 20  XYZ
    dof rx ry rz
    limits (-160.0 20.0)
           (-70.0 70.0)
           (-60.0 70.0)
  end
  begin
     id 3 
     name ltibia
     direction 0.342037 -0.939687 0   
     length 7.89258   
     axis 0 -0 20   XYZ
    dof rx
    limits (-10.0 170.0)
  end
  begin
     id 4 
     name lfoot
     direction 0.173497 -0.476678 0.861787   
     length 2.51543   
     axis -90 -1.13533e-015 20   XYZ
    dof rx rz
    limits (-45.0 90.0)
           (-70.0 20.0)
  end
  begin
     id 5 
     name ltoes
     direction 1.53564e-011 -4.21897e-011 1   
     length 1.21388   
     axis -90 -1.13533e-015 20   XYZ
    dof rx
    limits (-90.0 20.0)
  end
  begin
     id 6 
     name rhipjoint
     direction -0.489454 -0.772941 0.403729   
     length 2.43534  
     axis 0 -0 0  XYZ 
  end
  begin
     id 7 
     name rfemur
     direction -0.34202 -0.939693 0   
     length 7.10357   
     axis 0 -0 -20   XYZ
    dof rx ry rz
    limits (-160.0 20.0)
           (-70.0 70.0)
           (-70.0 60.0)
  end
  begin
     id 8 
     name rtibia
     direction -0.34202 -0.939693 0   
     length 9.16127   
     axis 0 -0 -20   XYZ
    dof rx
    limits (-10.0 170.0)
 end
 begin
     id 9 
     name rfoot
     direction -0.270974 -0.748671 0.605033   
     length 1.74894  
     axis -90 1.13533e-015 -20   XYZ
    dof rx rz
    limits (-45.0 90.0)
           (-20.0 70.0)
  end
  begin
     id 10 
     name rtoes
     direction -1.53557e-011 -4.21759e-011 1   
     length 0.787585   
     axis -90 1.13533e-015 -20   XYZ
    dof rx
    limits (-90.0 20.0)
  end
  begin
     id 11 
     name lowerback
     direction -0.0140249 0.999561 0.0260968   
     length 2.16963   
     axis 0 -0 0   XYZ
    dof rx ry rz
    limits (-20.0 45.0)
           (-30.0 30.0)
           (-30.0 30.0)
  end
  begin
     id 12 
     name upperback
     direction 0.00860018 0.999959 -0.002711   
     length 2.1726   
     axis 0 -0 0   XYZ
    dof rx ry rz
    limits (-20.0 45.0)
           (-30.0 30.0)
           (-30.0 30.0)
  end
  begin
     id 13 
     name thorax
     direction 0.015211 0.999782 -0.0143191   
     length 2.17061   
     axis 0 -0 0   XYZ
    dof rx ry rz
    limits (-20.0 45.0)
           (-30.0 30.0)
           (-30.0 30.0)
  end
  begin
     id 14 
     name lowerneck
     direction -0.0140143 0.999447 0.030145   
     length 2.26749   
     axis 0 -0 0   XYZ
    dof rx ry rz
    limits (-20.0 45.0)
           (-30.0 30.0)
           (-30.0 30.0)
  end
  begin
     id 15 
     name upperneck
     direction 0.118062 0.961438 -0.248392   
     length 2.22728   
     axis 0 -0 0   XYZ
    dof rx ry rz
    limits (-20.0 45.0)
           (-30.0 30.0)
           (-30.0 30.0)
  end
  begin
     id 16
     name head
     direction 0.0431885 0.9954 -0.085514  
     length 2.28786  
     axis 0 -0 0   XYZ
    dof rx ry rz
    limits (-20.0 45.0)
           (-30.0 30.0)
           (-30.0 30.0)
  end
  begin
     id 17 
     name lclavicle
     direction 0.912126 0.409548 0.0172323  
     length 4.31571  
     axis 0 -0 0   XYZ
    dof ry rz
    limits (-20.0 10.0)
           (0.0 20.0)
  end
  begin
     id 18 
     name lhumerus
     direction 1 -4.48977e-011 1.93091e-027   
     length 5.13658   
     axis 180 -30 -90   XYZ
    dof rx ry rz
    limits (-60.0 90.0)
           (-90.0 90.0)
           (-90.0 90.0)
  end
  begin
     id 19
     name lradius
     direction 1 -4.48916e-011 6.84018e-027   
     length 3.22473   
     axis 180 -30 -90   XYZ
    dof rx
    limits (-10.0 170.0)
  end
  begin
     id 20
     name lwrist
     direction 1 -4.48987e-011 7.01981e-027   
     length 1.61236   
     axis -4.37994e-015 90 90   XYZ
    dof ry
    limits (-180.0 0.0)
 end
  begin
     id 21 
     name lhand
     direction 1 -4.49037e-011 1.40335e-026   
     length 0.936406   
     axis -8.96029e-015 90 90   XYZ
    dof rx rz
    limits (-90.0 90.0)
           (-45.0 45.0)
  end
  begin
     id 22 
     name lfingers
     direction 1 -4.48886e-011 2.8104e-026   
     length 0.754955   
     axis -1.79203e-014 90 90   XYZ
    dof rx
    limits (0.0 90.0)
  end
  begin
     id 23
     name lthumb
     direction 0.707107 -6.34937e-011 0.707107   
     length 1.08397   
     axis -90 45 -4.48555e-014   XYZ
    dof rx rz
    limits (-45.0 45.0)
           (-45.0 45.0)
  end
  begin
     id 24 
     name rclavicle
     direction -0.947962 0.317997 0.0156638   
     length 4.86918  
     axis 0 -0 0   XYZ 
    dof ry rz
    limits (-10.0 20.0)
           (-20.0 0.0)
  end
  begin
     id 25 
     name rhumerus
     direction -1 -4.48951e-011 2.80534e-018  
     length 5.60911   
     axis 180 30 90   XYZ
    dof rx ry rz
    limits (-90.0 60.0)
           (-90.0 90.0)
           (-90.0 90.0)
  end
  begin
     id 26 
     name rradius
     direction -1 -4.4898e-011 2.11315e-027   
     length 3.38704   
     axis 180 30 90   XYZ
    dof rx
    limits (-10.0 170.0)
  end
  begin
     id 27 
     name rwrist
     direction -1 -4.48933e-011 7.02314e-027   
     length 1.69352   
     axis -4.37994e-015 -90 -90   XYZ
    dof ry
    limits (-180.0 0.0)
  end
  begin
     id 28
     name rhand
     direction -1 -4.48937e-011 1.40458e-026   
     length 0.755878   
     axis -8.96029e-015 -90 -90   XYZ
    dof rx rz
    limits (-90.0 90.0)
           (-45.0 45.0)
  end
  begin
     id 29
     name rfingers
     direction -1 -4.4901e-011 2.80737e-026   
     length 0.609409   
     axis -1.79203e-014 -90 -90   XYZ
    dof rx
    limits (0.0 90.0)
  end
  begin
     id 30
     name rthumb
     direction -0.707107 -6.34968e-011 0.707107   
     length 0.874992   
     axis -90 -45 4.48555e-014   XYZ
    dof rx rz
    limits (-45.0 45.0)
           (-45.0 45.0)
  end
:hierarchy
  begin
    root lhipjoint rhipjoint lowerback
    lhipjoint lfemur
    lfemur ltibia
    ltibia lfoot
    lfoot ltoes
    rhipjoint rfemur
    rfemur rtibia
    rtibia rfoot
    rfoot rtoes
    lowerback upperback
    upperback thorax
    thorax lowerneck lclavicle rclavicle
    lowerneck upperneck
    upperneck head
    lclavicle lhumerus
    lhumerus lradius
    lradius lwrist
    lwrist lhand lthumb
    lhand lfingers
    rclavicle rhumerus
    rhumerus rradius
    rradius rwrist
    rwrist rhand rthumb
    rhand rfingers
  end

#!OML:ASF C:\ViconDB\ViconDB\414\Spring2016\041811\Spring2016.ASF
:FULLY-SPECIFIED
:DEGREES
109
root 9.1365 20.8883 -1.99396 -170.491 -0.952916 -178.604
lowerback 15.3256 0.38595 -2.89235
upperback 1.9945 -0.24102 0.0545882
thorax -6.46567 -0.161842 1.75971
lowerneck -14.8969 -5.35273 -14.7743
upperneck 10.3887 -8.12304 21.8907
head 7.23992 -3.22381 8.9189
rclavicle -6.16232e-015 -1.47101e-014
rhumerus -32.0045 7.66084 -74.9058
rradius 90.6093
rwrist 1.81238
rhand -35.4346 -17.1428
rfingers 7.12502
rthumb -8.56421 -46.9491
lclavicle -6.16232e-015 -1.47101e-014
lhumerus -19.7063 -7.09971 64.3743
lradius 82.4597
lwrist -2.16353
lhand -35.4261 15.0791
lfingers 7.12502
lthumb -8.556 44.8858
rfemur -20.4112 -20.1973 24.8966
rtibia 18.4015
rfoot -31.0126 7.71878
rtoes -13.1358
lfemur -17.4847 -6.59072 -8.96998
ltibia 10.0933
lfoot 1.74329 17.9305
ltoes -7.23504
110
root 9.12556 20.6834 -2.12278 -170.388 -0.854366 -178.447
lowerback 16.372 0.43998 -2.74047
upperback 2.22692 -0.220802 0.0819283
thorax -6.79419 -0.173259 1.70696
lowerneck -15.4478 -5.46623 -14.2036
upperneck 10.2183 -8.12817 21.1421
head 7.22167 -3.20256 8.52658
rclavicle -2.78299e-015 -1.19271e-014
rhumerus -33.3159 6.66204 -75.8155
rradius 88.3982
rwrist 2.77088
rhand -35.6296 -16.9633
rfingers 7.12502
rthumb -8.75241 -46.7618
lclavicle -2.78299e-015 -1.19271e-014
lhumerus -20.8836 -7.30775 65.1929
lradius 80.822
lwrist -2.01225
lhand -35.7625 14.4905
lfingers 7.12502
lthumb -8.88066 44.2836
rfemur -22.0205 -19.853 25.4523
rtibia 18.9785
rfoot -29.8081 7.53055
rtoes -12.6415
lfemur -19.716 -5.09963 -8.80943
ltibia 11.8588
lfoot 1.68382 17.3799
ltoes -7.43705
111
root 9.11476 20.4659 -2.24834 -170.328 -0.790368 -178.507
lowerback 17.5194 0.517039 -2.80324
upperback 2.45011 -0.217772 0.0984413
thorax -7.18296 -0.189286 1.76955
lowerneck -16.6158 -6.32832 -13.1087
upperneck 10.9281 -8.21394 19.6934
head 7.56928 -2.71985 7.85948
rclavicle -1.39149e-015 9.54166e-015
rhumerus -34.5775 5.77452 -76.3461
rradius 86.1505
rwrist 3.73853
rhand -34.5532 -16.0734
rfingers 7.12502
rthumb -7.71352 -45.9127
lclavicle -1.39149e-015 9.54166e-015
lhumerus -22.0393 -7.57848 66.0951
lradius 79.0393
lwrist -1.73909
lhand -36.2423 14.0789
lfingers 7.12502
lthumb -9.34362 43.8518
rfemur -23.8637 -19.9549 25.8671
rtibia 20.0032
rfoot -29.3261 7.74014
rtoes -12.2134
lfemur -21.969 -3.20064 -9.10135
ltibia 13.7557
lfoot 2.26856 16.1722
ltoes -7.99277
112
root 9.10803 20.2233 -2.36597 -170.368 -0.994832 -178.439
lowerback 18.9175 0.509601 -2.67252
upperback 2.68012 -0.302227 0.171692
thorax -7.69189 -0.254329 1.80826
lowerneck -16.9534 -6.40818 -13.3496
upperneck 10.4251 -8.21287 20.0549
head 7.50259 -2.69237 8.01831
rclavicle 8.15017e-015 2.10712e-014
rhumerus -35.7108 4.71584 -76.9242
rradius 83.8976
rwrist 4.46351
rhand -34.4109 -16.098
rfingers 7.12502
rthumb -7.57615 -45.9423
lclavicle 8.15017e-015 2.10712e-014
lhumerus -23.1866 -7.8345 66.9972
lradius 77.3124
lwrist -2.22814
lhand -36.8041 14.3214
lfingers 7.12502
lthumb -9.88568 44.0694
rfemur -25.7323 -19.9416 26.3365
rtibia 21.4428
rfoot -28.6393 8.12917
rtoes -11.5036
lfemur -24.2764 -1.3 -9.34373
ltibia 15.8321
lfoot 3.08413 14.4994
ltoes -7.97469
113
root 9.09777 19.9599 -2.49591 -170.431 -0.780583 -178.421
lowerback 20.1512 0.63398 -2.60335
upperback 2.91316 -0.231869 0.124865
thorax -8.11049 -0.247915 1.71324
lowerneck -16.8745 -6.39166 -13.6358
upperneck 9.64322 -8.07402 20.5788
head 7.26148 -2.61202 8.2576
rclavicle 5.1684e-015 -2.38542e-015
rhumerus -36.8758 3.47539 -77.5355
rradius 81.4551
rwrist 5.88434
rhand -33.8794 -15.8188
rfingers 7.12502
rthumb -7.06311 -45.6809
lclavicle 5.1684e-015 -2.38542e-015
lhumerus -24.3012 -8.09877 67.7587
lradius 75.5331
lwrist -2.56892
lhand -36.1264 14.4874
lfingers 7.12502
lthumb -9.2318 44.2653
rfemur -27.6558 -19.5319 26.575
rtibia 23.3262
rfoot -28.1449 8.02816
rtoes -11.1678
lfemur -26.4818 0.708142 -9.71179
ltibia 18.1549
lfoot 3.69982 12.5146
ltoes -8.7176
114
root 9.08761 19.6702 -2.62831 -170.603 -0.669789 -178.286
lowerback 21.5075 0.706138 -2.5416
upperback 3.16263 -0.235438 0.183607
thorax -8.56665 -0.279402 1.75781
lowerneck -16.7853 -6.32127 -13.6344
upperneck 8.85245 -7.87734 20.7335
head 6.97143 -2.52704 8.31622
rclavicle 6.75868e-015 1.51076e-014
rhumerus -37.9679 2.62004 -78.2281
rradius 78.9798
rwrist 6.96034
rhand -34.6452 -15.6824
rfingers 7.12502
rthumb -7.80231 -45.5184
lclavicle 6.75868e-015 1.51076e-014
lhumerus -25.5191 -8.07729 68.4767
lradius 73.674
lwrist -3.08583
lhand -35.6007 14.3764
lfingers 7.12502
lthumb -8.72445 44.1761
rfemur -29.5328 -19.1189 26.8147
rtibia 25.5643
rfoot -27.7678 7.64635
rtoes -10.9428
lfemur -28.6611 2.73638 -10.0553
ltibia 20.7003
lfoot 4.55346 10.0379
ltoes -9.68864
